# xmcd
#
# Track frame offsets:
#	150
#	8746
#	13103
#	23921
#	30662
#	39229
#	53619
#	66059
#	74143
#	86334
#	93532
#	100782
#	110981
#	118510
#	127163
#	145704
#	153034
#	164499
#	175626
#
# Disc length: 2503 seconds
#
# Revision: 0
# Processed by: cddbd v1.5.2PL0 Copyright (c) Steve Scherf et al.
# Submitted via: EasyCDDAExtractor 11.1.0.1
#
DISCID=f509c513
DTITLE=Bosák Jiří - Pivní pěna - Bosákovy sprosté písně z kadibudky S-Z
DYEAR=2007
DGENRE=
TTITLE0=Sedlák seče
TTITLE1=Sláva nám
TTITLE2=Sloužilo děvče
TTITLE3=Stály baby
TTITLE4=Švec "Prťavec"
TTITLE5=Taliánskej svůdník
TTITLE6=Tam na kopečku
TTITLE7=To se často stává
TTITLE8=Tydlitát
TTITLE9=Tyrolácká
TTITLE10=Vandrovník
TTITLE11=Večerní serenáda
TTITLE12=Vede Honza
TTITLE13=Viagra
TTITLE14=Vyšel si sedlák
TTITLE15=Zdálo se mě
TTITLE16=Zemřela jeptiška
TTITLE17=Žena zlá
TTITLE18=Žižkovák
EXTD=
EXTT0=
EXTT1=
EXTT2=
EXTT3=
EXTT4=
EXTT5=
EXTT6=
EXTT7=
EXTT8=
EXTT9=
EXTT10=
EXTT11=
EXTT12=
EXTT13=
EXTT14=
EXTT15=
EXTT16=
EXTT17=
EXTT18=
PLAYORDER=
